<?xml version="1.0" encoding="UTF-8" standalone="no"?>
<!-- Created with Inkscape (http://www.inkscape.org/) -->

<svg
   width="1504"
   height="966"
   viewBox="0 0 397.93334 255.5875"
   version="1.1"
   id="svg5"
   inkscape:version="1.2.2 (732a01da63, 2022-12-09, custom)"
   sodipodi:docname="banner.svg"
   xml:space="preserve"
   inkscape:export-filename="../5ede7090/icon.png"
   inkscape:export-xdpi="192"
   inkscape:export-ydpi="192"
   xmlns:inkscape="http://www.inkscape.org/namespaces/inkscape"
   xmlns:sodipodi="http://sodipodi.sourceforge.net/DTD/sodipodi-0.dtd"
   xmlns:xlink="http://www.w3.org/1999/xlink"
   xmlns="http://www.w3.org/2000/svg"
   xmlns:svg="http://www.w3.org/2000/svg"><sodipodi:namedview
     id="namedview7"
     pagecolor="#ffffff"
     bordercolor="#000000"
     borderopacity="0.25"
     inkscape:showpageshadow="2"
     inkscape:pageopacity="0.0"
     inkscape:pagecheckerboard="0"
     inkscape:deskcolor="#d1d1d1"
     inkscape:document-units="mm"
     showgrid="false"
     inkscape:zoom="0.41976825"
     inkscape:cx="558.64159"
     inkscape:cy="312.07696"
     inkscape:window-width="1920"
     inkscape:window-height="1131"
     inkscape:window-x="0"
     inkscape:window-y="32"
     inkscape:window-maximized="1"
     inkscape:current-layer="layer1"
     showguides="false" /><defs
     id="defs2"><linearGradient
       inkscape:collect="always"
       id="linearGradient4108"><stop
         style="stop-color:#ff7b00;stop-opacity:0.67821348;"
         offset="0"
         id="stop4104" /><stop
         style="stop-color:#ffffff;stop-opacity:0;"
         offset="1"
         id="stop4106" /></linearGradient><linearGradient
       inkscape:collect="always"
       id="linearGradient2258"><stop
         style="stop-color:#00f9ff;stop-opacity:0.67821348;"
         offset="0"
         id="stop2254" /><stop
         style="stop-color:#ffffff;stop-opacity:0;"
         offset="1"
         id="stop2256" /></linearGradient><linearGradient
       inkscape:collect="always"
       id="linearGradient9080"><stop
         style="stop-color:#fff600;stop-opacity:0.67821348;"
         offset="0"
         id="stop9076" /><stop
         style="stop-color:#ffffff;stop-opacity:0;"
         offset="1"
         id="stop9078" /></linearGradient><linearGradient
       inkscape:collect="always"
       id="linearGradient9072"><stop
         style="stop-color:#ffa773;stop-opacity:0.65352172;"
         offset="0"
         id="stop9068" /><stop
         style="stop-color:#ffffff;stop-opacity:0;"
         offset="1"
         id="stop9070" /></linearGradient><linearGradient
       inkscape:collect="always"
       id="linearGradient8167"><stop
         style="stop-color:#0093d8;stop-opacity:0.56478578;"
         offset="0"
         id="stop8163" /><stop
         style="stop-color:#ffffff;stop-opacity:0;"
         offset="1"
         id="stop8165" /></linearGradient><radialGradient
       inkscape:collect="always"
       xlink:href="#linearGradient9080"
       id="radialGradient972"
       gradientUnits="userSpaceOnUse"
       gradientTransform="matrix(2.6104108,2.1894352,-2.3437661,2.7944142,171.4784,-47.859088)"
       cx="49.804344"
       cy="41.627407"
       fx="49.804344"
       fy="41.627407"
       r="5.387217" /><radialGradient
       inkscape:collect="always"
       xlink:href="#linearGradient9072"
       id="radialGradient974"
       gradientUnits="userSpaceOnUse"
       gradientTransform="matrix(-3.0194897,-2.4863955,2.1175272,-2.5715742,161.83804,60.59823)"
       cx="24.684595"
       cy="50.971832"
       fx="24.684595"
       fy="50.971832"
       r="11.970905" /><radialGradient
       inkscape:collect="always"
       xlink:href="#linearGradient8167"
       id="radialGradient976"
       gradientUnits="userSpaceOnUse"
       gradientTransform="matrix(-0.01051177,10.574753,-3.8434787,-0.00827983,293.56039,-462.31918)"
       cx="50.940403"
       cy="23.8552"
       fx="50.940403"
       fy="23.8552"
       r="11.970905" /><filter
       inkscape:collect="always"
       style="color-interpolation-filters:sRGB"
       id="filter961"
       x="-0.053649052"
       y="-0.086655786"
       width="1.1072981"
       height="1.1733116"><feGaussianBlur
         inkscape:collect="always"
         stdDeviation="8.4953385"
         id="feGaussianBlur963" /></filter><radialGradient
       inkscape:collect="always"
       xlink:href="#linearGradient2258"
       id="radialGradient2252"
       gradientUnits="userSpaceOnUse"
       gradientTransform="matrix(2.6104108,2.1894352,-2.3437661,2.7944142,171.4784,-104.88324)"
       cx="49.804344"
       cy="41.627407"
       fx="49.804344"
       fy="41.627407"
       r="5.387217" /><radialGradient
       inkscape:collect="always"
       xlink:href="#linearGradient2258"
       id="radialGradient4098"
       gradientUnits="userSpaceOnUse"
       gradientTransform="matrix(2.6104108,2.1894352,-2.3437661,2.7944142,171.4784,-163.20982)"
       cx="49.804344"
       cy="41.627407"
       fx="49.804344"
       fy="41.627407"
       r="5.387217" /><radialGradient
       inkscape:collect="always"
       xlink:href="#linearGradient4108"
       id="radialGradient4102"
       gradientUnits="userSpaceOnUse"
       gradientTransform="matrix(2.6104108,2.1894352,-2.3437661,2.7944142,114.67837,-139.94703)"
       cx="49.804344"
       cy="41.627407"
       fx="49.804344"
       fy="41.627407"
       r="5.387217" /><radialGradient
       inkscape:collect="always"
       xlink:href="#linearGradient4108"
       id="radialGradient4359"
       gradientUnits="userSpaceOnUse"
       gradientTransform="matrix(2.6104108,2.1894352,-2.3437661,2.7944142,169.44624,-139.94703)"
       cx="49.804344"
       cy="41.627407"
       fx="49.804344"
       fy="41.627407"
       r="5.387217" /><radialGradient
       inkscape:collect="always"
       xlink:href="#linearGradient9072"
       id="radialGradient4361"
       gradientUnits="userSpaceOnUse"
       gradientTransform="matrix(-3.0194897,-2.4863955,2.1175272,-2.5715742,161.83804,5.830359)"
       cx="24.684595"
       cy="50.971832"
       fx="24.684595"
       fy="50.971832"
       r="11.970905" /><radialGradient
       inkscape:collect="always"
       xlink:href="#linearGradient8167"
       id="radialGradient4395"
       gradientUnits="userSpaceOnUse"
       gradientTransform="matrix(-0.01051177,10.574753,-3.8434787,-0.00827983,293.56039,-462.31918)"
       cx="50.940403"
       cy="23.8552"
       fx="50.940403"
       fy="23.8552"
       r="11.970905" /><radialGradient
       inkscape:collect="always"
       xlink:href="#linearGradient9080"
       id="radialGradient4397"
       gradientUnits="userSpaceOnUse"
       gradientTransform="matrix(2.6104108,2.1894352,-2.3437661,2.7944142,171.4784,-47.859088)"
       cx="49.804344"
       cy="41.627407"
       fx="49.804344"
       fy="41.627407"
       r="5.387217" /><radialGradient
       inkscape:collect="always"
       xlink:href="#linearGradient2258"
       id="radialGradient4399"
       gradientUnits="userSpaceOnUse"
       gradientTransform="matrix(2.6104108,2.1894352,-2.3437661,2.7944142,171.4784,-104.88324)"
       cx="49.804344"
       cy="41.627407"
       fx="49.804344"
       fy="41.627407"
       r="5.387217" /><radialGradient
       inkscape:collect="always"
       xlink:href="#linearGradient2258"
       id="radialGradient4401"
       gradientUnits="userSpaceOnUse"
       gradientTransform="matrix(2.6104108,2.1894352,-2.3437661,2.7944142,171.4784,-163.20982)"
       cx="49.804344"
       cy="41.627407"
       fx="49.804344"
       fy="41.627407"
       r="5.387217" /><radialGradient
       inkscape:collect="always"
       xlink:href="#linearGradient9072"
       id="radialGradient4411"
       gradientUnits="userSpaceOnUse"
       gradientTransform="matrix(-3.0194897,-2.4863955,2.1175272,-2.5715742,161.83804,-52.625753)"
       cx="24.684595"
       cy="50.971832"
       fx="24.684595"
       fy="50.971832"
       r="11.970905" /><radialGradient
       inkscape:collect="always"
       xlink:href="#linearGradient4108"
       id="radialGradient4413"
       gradientUnits="userSpaceOnUse"
       gradientTransform="matrix(2.6104108,2.1894352,-2.3437661,2.7944142,227.90235,-139.94703)"
       cx="49.804344"
       cy="41.627407"
       fx="49.804344"
       fy="41.627407"
       r="5.387217" /></defs><g
     inkscape:label="Layer 1"
     inkscape:groupmode="layer"
     id="layer1"><rect
       style="opacity:0.385;fill:#040404;fill-opacity:1;stroke-width:4.63552;filter:url(#filter961)"
       id="rect405"
       width="380.0405"
       height="235.28506"
       x="10.533918"
       y="11.738714"
       ry="16.953865" /><rect
       style="opacity:0.993849;fill:#ffffff;fill-opacity:1;stroke-width:4.63552"
       id="rect49025"
       width="380.0405"
       height="235.28506"
       x="8.9464197"
       y="10.151216"
       ry="16.953865" /><path
       id="path4551"
       style="opacity:0.26131931;fill:#ffe680;fill-opacity:1;stroke:none;stroke-width:6.36855;stroke-linecap:round;stroke-dasharray:none;stroke-opacity:1"
       d="M 25.900228 10.151318 C 16.507796 10.151318 8.946224 17.71289 8.946224 27.105322 L 8.946224 100.7277 A 75.005959 75.005959 0 0 0 72.306698 135.68939 A 75.005959 75.005959 0 0 0 147.31246 60.683634 A 75.005959 75.005959 0 0 0 127.72915 10.151318 L 25.900228 10.151318 z " /><g
       id="g4379"
       transform="translate(-61.653122)"><rect
         style="fill:url(#radialGradient976);fill-opacity:1;stroke:#0b384a;stroke-width:5.364;stroke-dasharray:none;stroke-opacity:1"
         id="rect966"
         width="42.390823"
         height="124.73472"
         x="179.80331"
         y="77.057755"
         ry="21.195412" /><rect
         style="fill:url(#radialGradient972);fill-opacity:1;stroke:#302f02;stroke-width:5.36379;stroke-dasharray:none;stroke-opacity:1"
         id="rect970"
         width="21.541483"
         height="21.541483"
         x="190.22809"
         y="169.14565"
         ry="13.054659" /><path
         id="path1017"
         style="color:#000000;fill:#302f02;fill-opacity:1;stroke-width:1.32874;stroke-linecap:round;-inkscape-stroke:none"
         d="m 200.99733,132.79619 a 2.6818939,2.6818939 0 0 0 -2.68067,2.68341 v 24.52084 l -0.20805,-0.20875 -4.69186,-4.69734 a 2.5421236,2.5421236 0 0 0 -1.79558,-0.74708 2.5421236,2.5421236 0 0 0 -1.79832,0.74227 2.5421236,2.5421236 0 0 0 -0.003,3.59665 l 4.68911,4.69736 4.09103,4.09927 a 2.6818939,2.6818939 0 0 0 1.19821,1.20095 l 1.19889,1.20094 1.19751,-1.19956 a 2.6818939,2.6818939 0 0 0 1.20368,-1.20575 l 4.08967,-4.09585 4.68912,-4.69736 a 2.5421236,2.5421236 0 0 0 -0.003,-3.59665 2.5421236,2.5421236 0 0 0 -3.59392,0.005 l -4.69254,4.69735 -0.20737,0.20805 v -24.52015 a 2.6818939,2.6818939 0 0 0 -2.68341,-2.68341 z" /><rect
         style="fill:url(#radialGradient2252);fill-opacity:1;stroke:#302f02;stroke-width:5.36379;stroke-dasharray:none;stroke-opacity:1"
         id="rect2248"
         width="21.541483"
         height="21.541483"
         x="190.22809"
         y="112.1215"
         ry="13.054659" /><path
         id="path2250"
         style="color:#000000;fill:#302f02;fill-opacity:1;stroke-width:1.32874;stroke-linecap:round;-inkscape-stroke:none"
         d="m 200.99733,75.772034 a 2.6818939,2.6818939 0 0 0 -2.68067,2.683409 v 24.520837 l -0.20805,-0.20874 -4.69186,-4.697345 a 2.5421236,2.5421236 0 0 0 -1.79558,-0.74707 2.5421236,2.5421236 0 0 0 -1.79832,0.74226 2.5421236,2.5421236 0 0 0 -0.003,3.596655 l 4.68911,4.69735 4.09103,4.09928 a 2.6818939,2.6818939 0 0 0 1.19821,1.20094 l 1.19889,1.20095 1.19751,-1.19956 a 2.6818939,2.6818939 0 0 0 1.20368,-1.20576 l 4.08967,-4.09585 4.68912,-4.69735 a 2.5421236,2.5421236 0 0 0 -0.003,-3.596655 2.5421236,2.5421236 0 0 0 -3.59392,0.005 l -4.69254,4.697345 -0.20737,0.20805 V 78.455948 a 2.6818939,2.6818939 0 0 0 -2.68341,-2.683409 z" /><rect
         style="fill:url(#radialGradient4098);fill-opacity:1;stroke:#302f02;stroke-width:5.36379;stroke-dasharray:none;stroke-opacity:1"
         id="rect4094"
         width="21.541483"
         height="21.541483"
         x="190.22809"
         y="53.794918"
         ry="13.054659" /></g><g
       id="g4371"
       transform="translate(-64.474272)"><rect
         style="fill:url(#radialGradient974);fill-opacity:1;stroke:#993800;stroke-width:5.36413;stroke-dasharray:none;stroke-opacity:1"
         id="rect968"
         width="42.692646"
         height="42.692646"
         x="159.09976"
         y="-165.54514"
         ry="25.87277"
         transform="rotate(90)" /><path
         id="path1757"
         style="color:#000000;fill:#993800;fill-opacity:1;stroke-width:1.32874;stroke-linecap:round;-inkscape-stroke:none"
         d="m 144.38846,123.0601 a 2.6818939,2.6818939 0 0 0 -2.68067,2.68341 v 24.52084 l -0.20805,-0.20876 -4.69186,-4.69733 a 2.5421236,2.5421236 0 0 0 -1.79558,-0.74708 2.5421236,2.5421236 0 0 0 -1.79832,0.74226 2.5421236,2.5421236 0 0 0 -0.003,3.59665 l 4.68911,4.69736 4.09104,4.09928 a 2.6818939,2.6818939 0 0 0 1.1982,1.20094 l 1.19889,1.20095 1.19751,-1.19957 a 2.6818939,2.6818939 0 0 0 1.20368,-1.20575 l 4.08967,-4.09585 4.68912,-4.69736 a 2.5421236,2.5421236 0 0 0 -0.003,-3.59665 2.5421236,2.5421236 0 0 0 -3.59392,0.005 l -4.69253,4.69734 -0.20738,0.20805 v -24.52014 a 2.6818939,2.6818939 0 0 0 -2.68341,-2.68341 z" /><rect
         style="fill:url(#radialGradient4102);fill-opacity:1;stroke:#302f02;stroke-width:5.36379;stroke-dasharray:none;stroke-opacity:1"
         id="rect4100"
         width="21.541483"
         height="21.541483"
         x="133.42807"
         y="77.057648"
         ry="13.054659" /></g><path
       id="circle4553"
       style="opacity:0.11114554;fill:#81ff80;fill-opacity:1;stroke:none;stroke-width:10.4768;stroke-linecap:round;stroke-dasharray:none;stroke-opacity:1"
       d="M 327.52316 50.439815 A 123.39146 123.39146 0 0 0 204.13173 173.83125 A 123.39146 123.39146 0 0 0 227.11947 245.43618 L 372.03311 245.43618 C 381.42554 245.43618 388.98711 237.87461 388.98711 228.48218 L 388.98711 66.846566 A 123.39146 123.39146 0 0 0 327.52316 50.439815 z " /><rect
       style="fill:url(#radialGradient4361);fill-opacity:1;stroke:#993800;stroke-width:5.36413;stroke-dasharray:none;stroke-opacity:1"
       id="rect4353"
       width="42.692646"
       height="42.692646"
       x="159.09976"
       y="-220.31299"
       ry="25.87277"
       transform="rotate(90)" /><path
       id="path4355"
       style="color:#000000;fill:#993800;fill-opacity:1;stroke-width:1.32874;stroke-linecap:round;-inkscape-stroke:none"
       d="m 199.15633,123.0601 a 2.6818939,2.6818939 0 0 0 -2.68067,2.68341 v 24.52084 l -0.20805,-0.20876 -4.69186,-4.69733 a 2.5421236,2.5421236 0 0 0 -1.79558,-0.74708 2.5421236,2.5421236 0 0 0 -1.79832,0.74226 2.5421236,2.5421236 0 0 0 -0.003,3.59665 l 4.68911,4.69736 4.09104,4.09928 a 2.6818939,2.6818939 0 0 0 1.1982,1.20094 l 1.19889,1.20095 1.19751,-1.19957 a 2.6818939,2.6818939 0 0 0 1.20368,-1.20575 l 4.08967,-4.09585 4.68912,-4.69736 a 2.5421236,2.5421236 0 0 0 -0.003,-3.59665 2.5421236,2.5421236 0 0 0 -3.59392,0.005 l -4.69253,4.69734 -0.20738,0.20805 v -24.52014 a 2.6818939,2.6818939 0 0 0 -2.68341,-2.68341 z" /><rect
       style="fill:url(#radialGradient4359);fill-opacity:1;stroke:#302f02;stroke-width:5.36379;stroke-dasharray:none;stroke-opacity:1"
       id="rect4357"
       width="21.541483"
       height="21.541483"
       x="188.19592"
       y="77.057648"
       ry="13.054659" /><g
       id="g4393"
       transform="translate(57.589006)"><rect
         style="fill:url(#radialGradient4395);fill-opacity:1;stroke:#0b384a;stroke-width:5.364;stroke-dasharray:none;stroke-opacity:1"
         id="rect4381"
         width="42.390823"
         height="124.73472"
         x="179.80331"
         y="77.057755"
         ry="21.195412" /><rect
         style="fill:url(#radialGradient4397);fill-opacity:1;stroke:#302f02;stroke-width:5.36379;stroke-dasharray:none;stroke-opacity:1"
         id="rect4383"
         width="21.541483"
         height="21.541483"
         x="190.22809"
         y="169.14565"
         ry="13.054659" /><path
         id="path4385"
         style="color:#000000;fill:#302f02;fill-opacity:1;stroke-width:1.32874;stroke-linecap:round;-inkscape-stroke:none"
         d="m 200.99733,132.79619 a 2.6818939,2.6818939 0 0 0 -2.68067,2.68341 v 24.52084 l -0.20805,-0.20875 -4.69186,-4.69734 a 2.5421236,2.5421236 0 0 0 -1.79558,-0.74708 2.5421236,2.5421236 0 0 0 -1.79832,0.74227 2.5421236,2.5421236 0 0 0 -0.003,3.59665 l 4.68911,4.69736 4.09103,4.09927 a 2.6818939,2.6818939 0 0 0 1.19821,1.20095 l 1.19889,1.20094 1.19751,-1.19956 a 2.6818939,2.6818939 0 0 0 1.20368,-1.20575 l 4.08967,-4.09585 4.68912,-4.69736 a 2.5421236,2.5421236 0 0 0 -0.003,-3.59665 2.5421236,2.5421236 0 0 0 -3.59392,0.005 l -4.69254,4.69735 -0.20737,0.20805 v -24.52015 a 2.6818939,2.6818939 0 0 0 -2.68341,-2.68341 z" /><rect
         style="fill:url(#radialGradient4399);fill-opacity:1;stroke:#302f02;stroke-width:5.36379;stroke-dasharray:none;stroke-opacity:1"
         id="rect4387"
         width="21.541483"
         height="21.541483"
         x="190.22809"
         y="112.1215"
         ry="13.054659" /><path
         id="path4389"
         style="color:#000000;fill:#302f02;fill-opacity:1;stroke-width:1.32874;stroke-linecap:round;-inkscape-stroke:none"
         d="m 200.99733,75.772034 a 2.6818939,2.6818939 0 0 0 -2.68067,2.683409 v 24.520837 l -0.20805,-0.20874 -4.69186,-4.697345 a 2.5421236,2.5421236 0 0 0 -1.79558,-0.74707 2.5421236,2.5421236 0 0 0 -1.79832,0.74226 2.5421236,2.5421236 0 0 0 -0.003,3.596655 l 4.68911,4.69735 4.09103,4.09928 a 2.6818939,2.6818939 0 0 0 1.19821,1.20094 l 1.19889,1.20095 1.19751,-1.19956 a 2.6818939,2.6818939 0 0 0 1.20368,-1.20576 l 4.08967,-4.09585 4.68912,-4.69735 a 2.5421236,2.5421236 0 0 0 -0.003,-3.596655 2.5421236,2.5421236 0 0 0 -3.59392,0.005 l -4.69254,4.697345 -0.20737,0.20805 V 78.455948 a 2.6818939,2.6818939 0 0 0 -2.68341,-2.683409 z" /><rect
         style="fill:url(#radialGradient4401);fill-opacity:1;stroke:#302f02;stroke-width:5.36379;stroke-dasharray:none;stroke-opacity:1"
         id="rect4391"
         width="21.541483"
         height="21.541483"
         x="190.22809"
         y="53.794918"
         ry="13.054659" /></g><g
       id="g4409"
       transform="translate(60.786015)"><rect
         style="fill:url(#radialGradient4411);fill-opacity:1;stroke:#993800;stroke-width:5.36413;stroke-dasharray:none;stroke-opacity:1"
         id="rect4403"
         width="42.692646"
         height="42.692646"
         x="159.09976"
         y="-278.7691"
         ry="25.87277"
         transform="rotate(90)" /><path
         id="path4405"
         style="color:#000000;fill:#993800;fill-opacity:1;stroke-width:1.32874;stroke-linecap:round;-inkscape-stroke:none"
         d="m 257.61244,123.0601 a 2.6818939,2.6818939 0 0 0 -2.68067,2.68341 v 24.52084 l -0.20805,-0.20876 -4.69186,-4.69733 a 2.5421236,2.5421236 0 0 0 -1.79558,-0.74708 2.5421236,2.5421236 0 0 0 -1.79832,0.74226 2.5421236,2.5421236 0 0 0 -0.003,3.59665 l 4.68911,4.69736 4.09104,4.09928 a 2.6818939,2.6818939 0 0 0 1.1982,1.20094 l 1.19889,1.20095 1.19751,-1.19957 a 2.6818939,2.6818939 0 0 0 1.20368,-1.20575 l 4.08967,-4.09585 4.68912,-4.69736 a 2.5421236,2.5421236 0 0 0 -0.003,-3.59665 2.5421236,2.5421236 0 0 0 -3.59392,0.005 l -4.69253,4.69734 -0.20738,0.20805 v -24.52014 a 2.6818939,2.6818939 0 0 0 -2.68341,-2.68341 z" /><rect
         style="fill:url(#radialGradient4413);fill-opacity:1;stroke:#302f02;stroke-width:5.36379;stroke-dasharray:none;stroke-opacity:1"
         id="rect4407"
         width="21.541483"
         height="21.541483"
         x="246.65204"
         y="77.057648"
         ry="13.054659" /></g></g></svg>
